<mxfile host="app.diagrams.net" modified="2021-10-01T17:29:55.203Z" agent="5.0 (Windows NT 10.0; Win64; x64) AppleWebKit/537.36 (KHTML, like Gecko) Chrome/93.0.4577.82 Safari/537.36 OPR/79.0.4143.50 (Edition utorrent)" etag="rWGKnTXk0YZp5gLkz0fp" version="15.4.0" type="github">
  <diagram id="R2lEEEUBdFMjLlhIrx00" name="Page-1">
    <mxGraphModel dx="868" dy="483" grid="1" gridSize="10" guides="1" tooltips="1" connect="1" arrows="1" fold="1" page="1" pageScale="1" pageWidth="850" pageHeight="1100" math="0" shadow="0" extFonts="Permanent Marker^https://fonts.googleapis.com/css?family=Permanent+Marker">
      <root>
        <mxCell id="0" />
        <mxCell id="1" parent="0" />
        <mxCell id="RVtmgP2brcEatpGT0lwi-5" value="Departamento" style="swimlane;childLayout=stackLayout;horizontal=1;startSize=30;horizontalStack=0;rounded=0;fontSize=14;fontStyle=0;strokeWidth=2;resizeParent=0;resizeLast=1;shadow=0;dashed=0;align=center;fillColor=default;" vertex="1" parent="1">
          <mxGeometry x="80" y="120" width="160" height="120" as="geometry" />
        </mxCell>
        <mxCell id="RVtmgP2brcEatpGT0lwi-6" value="* Código&#xa;Nome" style="align=left;strokeColor=none;fillColor=none;spacingLeft=4;fontSize=13;verticalAlign=top;resizable=0;rotatable=0;part=1;" vertex="1" parent="RVtmgP2brcEatpGT0lwi-5">
          <mxGeometry y="30" width="160" height="90" as="geometry" />
        </mxCell>
        <mxCell id="RVtmgP2brcEatpGT0lwi-8" value="Funcionário" style="swimlane;childLayout=stackLayout;horizontal=1;startSize=30;horizontalStack=0;rounded=0;fontSize=14;fontStyle=0;strokeWidth=2;resizeParent=0;resizeLast=1;shadow=0;dashed=0;align=center;fillColor=default;" vertex="1" parent="1">
          <mxGeometry x="440" y="120" width="160" height="120" as="geometry" />
        </mxCell>
        <mxCell id="RVtmgP2brcEatpGT0lwi-9" value="* Matricula&#xa;Nome&#xa;Salário" style="align=left;strokeColor=none;fillColor=none;spacingLeft=4;fontSize=13;verticalAlign=top;resizable=0;rotatable=0;part=1;" vertex="1" parent="RVtmgP2brcEatpGT0lwi-8">
          <mxGeometry y="30" width="160" height="90" as="geometry" />
        </mxCell>
        <mxCell id="RVtmgP2brcEatpGT0lwi-11" value="" style="edgeStyle=entityRelationEdgeStyle;fontSize=12;html=1;endArrow=ERzeroToOne;startArrow=ERmandOne;rounded=0;entryX=-0.006;entryY=0.356;entryDx=0;entryDy=0;entryPerimeter=0;" edge="1" parent="1" target="RVtmgP2brcEatpGT0lwi-9">
          <mxGeometry width="100" height="100" relative="1" as="geometry">
            <mxPoint x="240" y="182" as="sourcePoint" />
            <mxPoint x="470" y="200" as="targetPoint" />
          </mxGeometry>
        </mxCell>
        <mxCell id="RVtmgP2brcEatpGT0lwi-13" value="lota" style="edgeLabel;html=1;align=center;verticalAlign=middle;resizable=0;points=[];fontSize=13;" vertex="1" connectable="0" parent="RVtmgP2brcEatpGT0lwi-11">
          <mxGeometry x="-0.1057" y="1" relative="1" as="geometry">
            <mxPoint x="11" y="-1" as="offset" />
          </mxGeometry>
        </mxCell>
        <mxCell id="RVtmgP2brcEatpGT0lwi-15" value="" style="edgeStyle=entityRelationEdgeStyle;fontSize=12;html=1;endArrow=ERzeroToMany;startArrow=ERmandOne;rounded=0;" edge="1" parent="1" target="RVtmgP2brcEatpGT0lwi-9">
          <mxGeometry width="100" height="100" relative="1" as="geometry">
            <mxPoint x="600" y="160" as="sourcePoint" />
            <mxPoint x="700" y="60" as="targetPoint" />
          </mxGeometry>
        </mxCell>
        <mxCell id="RVtmgP2brcEatpGT0lwi-16" value="gerencia" style="edgeLabel;html=1;align=center;verticalAlign=middle;resizable=0;points=[];fontSize=13;" vertex="1" connectable="0" parent="RVtmgP2brcEatpGT0lwi-15">
          <mxGeometry x="0.0105" y="1" relative="1" as="geometry">
            <mxPoint as="offset" />
          </mxGeometry>
        </mxCell>
      </root>
    </mxGraphModel>
  </diagram>
</mxfile>
